<svg xmlns="http://www.w3.org/2000/svg" width="27" height="27" viewBox="0 0 27 27" fill="none">
<rect width="27" height="27" rx="13.5" fill="black"/>
<path d="M21.5 14.5C21.5 10.0817 17.9183 6.5 13.5 6.5C12.4391 6.5 11.4264 6.70651 10.5 7.08152M5.5 14.5C5.5 12.4711 6.25527 10.6186 7.5 9.20835" stroke="white" stroke-width="2" stroke-linecap="round" stroke-linejoin="round"/>
<path d="M12 20.5C12.6667 19.5 13.9 16.9 13.5 14.5" stroke="white" stroke-width="2" stroke-linecap="round" stroke-linejoin="round"/>
<path d="M17.5 14.5C17.5 12.2909 15.7091 10.5 13.5 10.5C11.2909 10.5 9.5 12.2909 9.5 14.5C9.5 15.8333 9.3 18.6 8.5 19M17.5 17.5C17.5 18 17.5 19 17 20" stroke="white" stroke-width="2" stroke-linecap="round" stroke-linejoin="round"/>
</svg>